<mxfile host="Electron" modified="2023-08-09T04:15:17.578Z" agent="Mozilla/5.0 (Windows NT 10.0; Win64; x64) AppleWebKit/537.36 (KHTML, like Gecko) draw.io/21.6.5 Chrome/114.0.5735.243 Electron/25.3.1 Safari/537.36" etag="scWWpsq-oOV5FGdlrPqs" version="21.6.5" type="device">
  <diagram name="PÃ¡gina-1" id="Lf96iO1mAZA-htlCqJFO">
    <mxGraphModel dx="880" dy="532" grid="1" gridSize="10" guides="1" tooltips="1" connect="1" arrows="1" fold="1" page="1" pageScale="1" pageWidth="827" pageHeight="1169" math="0" shadow="0">
      <root>
        <mxCell id="0" />
        <mxCell id="1" parent="0" />
        <mxCell id="Z20L5RZ5sT3_ed3F6WeH-1" value="Cliente" style="rounded=0;whiteSpace=wrap;html=1;" vertex="1" parent="1">
          <mxGeometry x="165" y="226.25" width="60" height="30" as="geometry" />
        </mxCell>
        <mxCell id="Z20L5RZ5sT3_ed3F6WeH-2" value="dir_cliente" style="ellipse;whiteSpace=wrap;html=1;" vertex="1" parent="1">
          <mxGeometry x="45" y="276.25" width="70" height="30" as="geometry" />
        </mxCell>
        <mxCell id="Z20L5RZ5sT3_ed3F6WeH-3" value="nom_cliente" style="ellipse;whiteSpace=wrap;html=1;" vertex="1" parent="1">
          <mxGeometry x="40" y="226.25" width="80" height="30" as="geometry" />
        </mxCell>
        <mxCell id="Z20L5RZ5sT3_ed3F6WeH-4" value="cod_cliente" style="ellipse;whiteSpace=wrap;html=1;fontStyle=0" vertex="1" parent="1">
          <mxGeometry x="40" y="176.25" width="80" height="30" as="geometry" />
        </mxCell>
        <mxCell id="Z20L5RZ5sT3_ed3F6WeH-5" value="num_membresia" style="ellipse;whiteSpace=wrap;html=1;fontStyle=4;fillColor=#60a917;fontColor=#ffffff;strokeColor=#2D7600;" vertex="1" parent="1">
          <mxGeometry x="140" y="176.25" width="110" height="30" as="geometry" />
        </mxCell>
        <mxCell id="Z20L5RZ5sT3_ed3F6WeH-6" value="tel_cliente" style="ellipse;whiteSpace=wrap;html=1;" vertex="1" parent="1">
          <mxGeometry x="160" y="276.25" width="70" height="31" as="geometry" />
        </mxCell>
        <mxCell id="Z20L5RZ5sT3_ed3F6WeH-7" value="Actor" style="rounded=0;whiteSpace=wrap;html=1;" vertex="1" parent="1">
          <mxGeometry x="305" y="100" width="50" height="30" as="geometry" />
        </mxCell>
        <mxCell id="Z20L5RZ5sT3_ed3F6WeH-8" value="Categoria" style="rounded=0;whiteSpace=wrap;html=1;" vertex="1" parent="1">
          <mxGeometry x="652" y="361.75" width="60" height="30" as="geometry" />
        </mxCell>
        <mxCell id="Z20L5RZ5sT3_ed3F6WeH-9" value="Formato" style="rounded=0;whiteSpace=wrap;html=1;" vertex="1" parent="1">
          <mxGeometry x="655" y="281.75" width="60" height="29" as="geometry" />
        </mxCell>
        <mxCell id="Z20L5RZ5sT3_ed3F6WeH-10" value="alquilar&lt;br&gt;N:M" style="rhombus;whiteSpace=wrap;html=1;" vertex="1" parent="1">
          <mxGeometry x="280" y="201.75" width="80" height="80" as="geometry" />
        </mxCell>
        <mxCell id="Z20L5RZ5sT3_ed3F6WeH-11" value="Cassette" style="rounded=0;whiteSpace=wrap;html=1;" vertex="1" parent="1">
          <mxGeometry x="580" y="151.25" width="60" height="30" as="geometry" />
        </mxCell>
        <mxCell id="Z20L5RZ5sT3_ed3F6WeH-12" value="cod_actor_fk" style="ellipse;whiteSpace=wrap;html=1;" vertex="1" parent="1">
          <mxGeometry x="700" y="210" width="80" height="30" as="geometry" />
        </mxCell>
        <mxCell id="Z20L5RZ5sT3_ed3F6WeH-13" value="id_categoria_fk" style="ellipse;whiteSpace=wrap;html=1;" vertex="1" parent="1">
          <mxGeometry x="690" y="130" width="100" height="30" as="geometry" />
        </mxCell>
        <mxCell id="Z20L5RZ5sT3_ed3F6WeH-14" value="id_formato_fk" style="ellipse;whiteSpace=wrap;html=1;" vertex="1" parent="1">
          <mxGeometry x="700" y="170" width="80" height="30" as="geometry" />
        </mxCell>
        <mxCell id="Z20L5RZ5sT3_ed3F6WeH-15" value="cod_tipo" style="ellipse;whiteSpace=wrap;html=1;" vertex="1" parent="1">
          <mxGeometry x="620" y="91.25" width="60" height="30" as="geometry" />
        </mxCell>
        <mxCell id="Z20L5RZ5sT3_ed3F6WeH-16" value="num_copias" style="ellipse;whiteSpace=wrap;html=1;" vertex="1" parent="1">
          <mxGeometry x="700" y="92.5" width="80" height="25" as="geometry" />
        </mxCell>
        <mxCell id="Z20L5RZ5sT3_ed3F6WeH-17" value="titulo" style="ellipse;whiteSpace=wrap;html=1;" vertex="1" parent="1">
          <mxGeometry x="555" y="91.25" width="50" height="30" as="geometry" />
        </mxCell>
        <mxCell id="Z20L5RZ5sT3_ed3F6WeH-18" value="cod_pelicula" style="ellipse;whiteSpace=wrap;html=1;" vertex="1" parent="1">
          <mxGeometry x="460" y="91.25" width="80" height="30" as="geometry" />
        </mxCell>
        <mxCell id="Z20L5RZ5sT3_ed3F6WeH-19" value="cod_cassette" style="ellipse;whiteSpace=wrap;html=1;fontStyle=4;fillColor=#60a917;fontColor=#ffffff;strokeColor=#2D7600;" vertex="1" parent="1">
          <mxGeometry x="590" y="210" width="80" height="30" as="geometry" />
        </mxCell>
        <mxCell id="Z20L5RZ5sT3_ed3F6WeH-20" value="categoria" style="ellipse;whiteSpace=wrap;html=1;" vertex="1" parent="1">
          <mxGeometry x="740" y="381.25" width="70" height="30" as="geometry" />
        </mxCell>
        <mxCell id="Z20L5RZ5sT3_ed3F6WeH-21" value="id_categoria" style="ellipse;whiteSpace=wrap;html=1;fontStyle=4;fillColor=#60a917;fontColor=#ffffff;strokeColor=#2D7600;" vertex="1" parent="1">
          <mxGeometry x="740" y="331.75" width="75" height="30" as="geometry" />
        </mxCell>
        <mxCell id="Z20L5RZ5sT3_ed3F6WeH-22" value="fechanac_actor" style="ellipse;whiteSpace=wrap;html=1;" vertex="1" parent="1">
          <mxGeometry x="385" y="40" width="100" height="30" as="geometry" />
        </mxCell>
        <mxCell id="Z20L5RZ5sT3_ed3F6WeH-23" value="nom_actor" style="ellipse;whiteSpace=wrap;html=1;" vertex="1" parent="1">
          <mxGeometry x="295" y="40" width="70" height="30" as="geometry" />
        </mxCell>
        <mxCell id="Z20L5RZ5sT3_ed3F6WeH-24" value="cod_actor" style="ellipse;whiteSpace=wrap;html=1;fontStyle=4;fillColor=#60a917;fontColor=#ffffff;strokeColor=#2D7600;" vertex="1" parent="1">
          <mxGeometry x="220" y="40" width="60" height="30" as="geometry" />
        </mxCell>
        <mxCell id="Z20L5RZ5sT3_ed3F6WeH-25" value="formato" style="ellipse;whiteSpace=wrap;html=1;" vertex="1" parent="1">
          <mxGeometry x="740" y="301.25" width="60" height="20" as="geometry" />
        </mxCell>
        <mxCell id="Z20L5RZ5sT3_ed3F6WeH-26" value="id_formato" style="ellipse;whiteSpace=wrap;html=1;fillColor=#60a917;fontColor=#ffffff;strokeColor=#2D7600;fontStyle=4" vertex="1" parent="1">
          <mxGeometry x="740" y="271.25" width="70" height="20" as="geometry" />
        </mxCell>
        <mxCell id="Z20L5RZ5sT3_ed3F6WeH-29" value="Tiene&lt;br&gt;N:1" style="rhombus;whiteSpace=wrap;html=1;" vertex="1" parent="1">
          <mxGeometry x="545" y="271.25" width="50" height="50" as="geometry" />
        </mxCell>
        <mxCell id="Z20L5RZ5sT3_ed3F6WeH-30" value="Esta&lt;br&gt;1:N" style="rhombus;whiteSpace=wrap;html=1;" vertex="1" parent="1">
          <mxGeometry x="390" y="121.25" width="60" height="60" as="geometry" />
        </mxCell>
        <mxCell id="Z20L5RZ5sT3_ed3F6WeH-31" value="Tiene&lt;br&gt;N:1" style="rhombus;whiteSpace=wrap;html=1;" vertex="1" parent="1">
          <mxGeometry x="500" y="351.25" width="50" height="45.5" as="geometry" />
        </mxCell>
        <mxCell id="Z20L5RZ5sT3_ed3F6WeH-32" value="" style="endArrow=none;html=1;rounded=0;entryX=0.5;entryY=1;entryDx=0;entryDy=0;exitX=0;exitY=0.5;exitDx=0;exitDy=0;" edge="1" parent="1" source="Z20L5RZ5sT3_ed3F6WeH-30" target="Z20L5RZ5sT3_ed3F6WeH-7">
          <mxGeometry width="50" height="50" relative="1" as="geometry">
            <mxPoint x="480" y="341.25" as="sourcePoint" />
            <mxPoint x="530" y="291.25" as="targetPoint" />
            <Array as="points">
              <mxPoint x="330" y="151.25" />
            </Array>
          </mxGeometry>
        </mxCell>
        <mxCell id="Z20L5RZ5sT3_ed3F6WeH-35" value="" style="endArrow=none;html=1;rounded=0;entryX=0;entryY=0;entryDx=0;entryDy=0;exitX=1;exitY=0.5;exitDx=0;exitDy=0;" edge="1" parent="1" source="Z20L5RZ5sT3_ed3F6WeH-30" target="Z20L5RZ5sT3_ed3F6WeH-11">
          <mxGeometry width="50" height="50" relative="1" as="geometry">
            <mxPoint x="480" y="341.25" as="sourcePoint" />
            <mxPoint x="530" y="291.25" as="targetPoint" />
          </mxGeometry>
        </mxCell>
        <mxCell id="Z20L5RZ5sT3_ed3F6WeH-36" value="" style="endArrow=none;html=1;rounded=0;exitX=0;exitY=0.5;exitDx=0;exitDy=0;entryX=1;entryY=0.5;entryDx=0;entryDy=0;" edge="1" parent="1" source="Z20L5RZ5sT3_ed3F6WeH-9" target="Z20L5RZ5sT3_ed3F6WeH-29">
          <mxGeometry width="50" height="50" relative="1" as="geometry">
            <mxPoint x="480" y="191.75" as="sourcePoint" />
            <mxPoint x="530" y="141.75" as="targetPoint" />
          </mxGeometry>
        </mxCell>
        <mxCell id="Z20L5RZ5sT3_ed3F6WeH-37" value="" style="endArrow=none;html=1;rounded=0;entryX=0;entryY=0.75;entryDx=0;entryDy=0;exitX=0.5;exitY=0;exitDx=0;exitDy=0;" edge="1" parent="1" source="Z20L5RZ5sT3_ed3F6WeH-31" target="Z20L5RZ5sT3_ed3F6WeH-11">
          <mxGeometry width="50" height="50" relative="1" as="geometry">
            <mxPoint x="480" y="341.25" as="sourcePoint" />
            <mxPoint x="530" y="291.25" as="targetPoint" />
            <Array as="points">
              <mxPoint x="525" y="174.25" />
            </Array>
          </mxGeometry>
        </mxCell>
        <mxCell id="Z20L5RZ5sT3_ed3F6WeH-38" value="" style="endArrow=none;html=1;rounded=0;exitX=0;exitY=0.5;exitDx=0;exitDy=0;entryX=1;entryY=0.5;entryDx=0;entryDy=0;" edge="1" parent="1" source="Z20L5RZ5sT3_ed3F6WeH-8" target="Z20L5RZ5sT3_ed3F6WeH-31">
          <mxGeometry width="50" height="50" relative="1" as="geometry">
            <mxPoint x="480" y="341.25" as="sourcePoint" />
            <mxPoint x="530" y="291.25" as="targetPoint" />
          </mxGeometry>
        </mxCell>
        <mxCell id="Z20L5RZ5sT3_ed3F6WeH-39" value="" style="endArrow=none;html=1;rounded=0;exitX=0.5;exitY=0;exitDx=0;exitDy=0;entryX=0;entryY=1;entryDx=0;entryDy=0;" edge="1" parent="1" source="Z20L5RZ5sT3_ed3F6WeH-29" target="Z20L5RZ5sT3_ed3F6WeH-11">
          <mxGeometry width="50" height="50" relative="1" as="geometry">
            <mxPoint x="480" y="341.25" as="sourcePoint" />
            <mxPoint x="530" y="291.25" as="targetPoint" />
            <Array as="points">
              <mxPoint x="570" y="181.25" />
            </Array>
          </mxGeometry>
        </mxCell>
        <mxCell id="Z20L5RZ5sT3_ed3F6WeH-40" value="" style="endArrow=none;html=1;rounded=0;entryX=0;entryY=0.5;entryDx=0;entryDy=0;exitX=1;exitY=0.75;exitDx=0;exitDy=0;" edge="1" parent="1" source="Z20L5RZ5sT3_ed3F6WeH-11" target="Z20L5RZ5sT3_ed3F6WeH-14">
          <mxGeometry width="50" height="50" relative="1" as="geometry">
            <mxPoint x="480" y="341.25" as="sourcePoint" />
            <mxPoint x="530" y="291.25" as="targetPoint" />
          </mxGeometry>
        </mxCell>
        <mxCell id="Z20L5RZ5sT3_ed3F6WeH-41" value="" style="endArrow=none;html=1;rounded=0;entryX=0;entryY=0.5;entryDx=0;entryDy=0;exitX=1;exitY=0.25;exitDx=0;exitDy=0;" edge="1" parent="1" source="Z20L5RZ5sT3_ed3F6WeH-11" target="Z20L5RZ5sT3_ed3F6WeH-13">
          <mxGeometry width="50" height="50" relative="1" as="geometry">
            <mxPoint x="480" y="341.25" as="sourcePoint" />
            <mxPoint x="530" y="291.25" as="targetPoint" />
          </mxGeometry>
        </mxCell>
        <mxCell id="Z20L5RZ5sT3_ed3F6WeH-42" value="" style="endArrow=none;html=1;rounded=0;entryX=0;entryY=0.5;entryDx=0;entryDy=0;exitX=1;exitY=0;exitDx=0;exitDy=0;" edge="1" parent="1" source="Z20L5RZ5sT3_ed3F6WeH-11" target="Z20L5RZ5sT3_ed3F6WeH-16">
          <mxGeometry width="50" height="50" relative="1" as="geometry">
            <mxPoint x="480" y="341.25" as="sourcePoint" />
            <mxPoint x="530" y="291.25" as="targetPoint" />
          </mxGeometry>
        </mxCell>
        <mxCell id="Z20L5RZ5sT3_ed3F6WeH-43" value="" style="endArrow=none;html=1;rounded=0;entryX=0.5;entryY=1;entryDx=0;entryDy=0;exitX=0.75;exitY=0;exitDx=0;exitDy=0;" edge="1" parent="1" source="Z20L5RZ5sT3_ed3F6WeH-11" target="Z20L5RZ5sT3_ed3F6WeH-15">
          <mxGeometry width="50" height="50" relative="1" as="geometry">
            <mxPoint x="480" y="341.25" as="sourcePoint" />
            <mxPoint x="530" y="291.25" as="targetPoint" />
          </mxGeometry>
        </mxCell>
        <mxCell id="Z20L5RZ5sT3_ed3F6WeH-44" value="" style="endArrow=none;html=1;rounded=0;entryX=0.5;entryY=1;entryDx=0;entryDy=0;exitX=0.5;exitY=0;exitDx=0;exitDy=0;" edge="1" parent="1" source="Z20L5RZ5sT3_ed3F6WeH-11" target="Z20L5RZ5sT3_ed3F6WeH-17">
          <mxGeometry width="50" height="50" relative="1" as="geometry">
            <mxPoint x="480" y="341.25" as="sourcePoint" />
            <mxPoint x="530" y="291.25" as="targetPoint" />
          </mxGeometry>
        </mxCell>
        <mxCell id="Z20L5RZ5sT3_ed3F6WeH-45" value="" style="endArrow=none;html=1;rounded=0;entryX=0.5;entryY=1;entryDx=0;entryDy=0;exitX=0.25;exitY=0;exitDx=0;exitDy=0;" edge="1" parent="1" source="Z20L5RZ5sT3_ed3F6WeH-11" target="Z20L5RZ5sT3_ed3F6WeH-18">
          <mxGeometry width="50" height="50" relative="1" as="geometry">
            <mxPoint x="480" y="341.25" as="sourcePoint" />
            <mxPoint x="530" y="291.25" as="targetPoint" />
          </mxGeometry>
        </mxCell>
        <mxCell id="Z20L5RZ5sT3_ed3F6WeH-46" value="" style="endArrow=none;html=1;rounded=0;entryX=0.5;entryY=1;entryDx=0;entryDy=0;exitX=1;exitY=0;exitDx=0;exitDy=0;" edge="1" parent="1" source="Z20L5RZ5sT3_ed3F6WeH-7" target="Z20L5RZ5sT3_ed3F6WeH-22">
          <mxGeometry width="50" height="50" relative="1" as="geometry">
            <mxPoint x="480" y="341.25" as="sourcePoint" />
            <mxPoint x="530" y="291.25" as="targetPoint" />
          </mxGeometry>
        </mxCell>
        <mxCell id="Z20L5RZ5sT3_ed3F6WeH-47" value="" style="endArrow=none;html=1;rounded=0;entryX=0.5;entryY=1;entryDx=0;entryDy=0;exitX=0.5;exitY=0;exitDx=0;exitDy=0;" edge="1" parent="1" source="Z20L5RZ5sT3_ed3F6WeH-7" target="Z20L5RZ5sT3_ed3F6WeH-23">
          <mxGeometry width="50" height="50" relative="1" as="geometry">
            <mxPoint x="480" y="341.25" as="sourcePoint" />
            <mxPoint x="530" y="291.25" as="targetPoint" />
          </mxGeometry>
        </mxCell>
        <mxCell id="Z20L5RZ5sT3_ed3F6WeH-48" value="" style="endArrow=none;html=1;rounded=0;entryX=0.5;entryY=1;entryDx=0;entryDy=0;exitX=0;exitY=0;exitDx=0;exitDy=0;" edge="1" parent="1" source="Z20L5RZ5sT3_ed3F6WeH-7" target="Z20L5RZ5sT3_ed3F6WeH-24">
          <mxGeometry width="50" height="50" relative="1" as="geometry">
            <mxPoint x="480" y="341.25" as="sourcePoint" />
            <mxPoint x="530" y="291.25" as="targetPoint" />
          </mxGeometry>
        </mxCell>
        <mxCell id="Z20L5RZ5sT3_ed3F6WeH-49" value="" style="endArrow=none;html=1;rounded=0;entryX=0;entryY=0.25;entryDx=0;entryDy=0;exitX=0.5;exitY=0;exitDx=0;exitDy=0;" edge="1" parent="1" source="Z20L5RZ5sT3_ed3F6WeH-10" target="Z20L5RZ5sT3_ed3F6WeH-11">
          <mxGeometry width="50" height="50" relative="1" as="geometry">
            <mxPoint x="480" y="321.25" as="sourcePoint" />
            <mxPoint x="530" y="271.25" as="targetPoint" />
          </mxGeometry>
        </mxCell>
        <mxCell id="Z20L5RZ5sT3_ed3F6WeH-50" value="" style="endArrow=none;html=1;rounded=0;entryX=0.5;entryY=1;entryDx=0;entryDy=0;exitX=0.5;exitY=0;exitDx=0;exitDy=0;" edge="1" parent="1" source="Z20L5RZ5sT3_ed3F6WeH-19" target="Z20L5RZ5sT3_ed3F6WeH-11">
          <mxGeometry width="50" height="50" relative="1" as="geometry">
            <mxPoint x="480" y="321.25" as="sourcePoint" />
            <mxPoint x="530" y="271.25" as="targetPoint" />
          </mxGeometry>
        </mxCell>
        <mxCell id="Z20L5RZ5sT3_ed3F6WeH-51" value="" style="endArrow=none;html=1;rounded=0;entryX=0;entryY=0.5;entryDx=0;entryDy=0;exitX=1;exitY=1;exitDx=0;exitDy=0;" edge="1" parent="1" source="Z20L5RZ5sT3_ed3F6WeH-11" target="Z20L5RZ5sT3_ed3F6WeH-12">
          <mxGeometry width="50" height="50" relative="1" as="geometry">
            <mxPoint x="480" y="321.25" as="sourcePoint" />
            <mxPoint x="530" y="271.25" as="targetPoint" />
          </mxGeometry>
        </mxCell>
        <mxCell id="Z20L5RZ5sT3_ed3F6WeH-52" value="" style="endArrow=none;html=1;rounded=0;entryX=0;entryY=0.5;entryDx=0;entryDy=0;exitX=1;exitY=0.75;exitDx=0;exitDy=0;" edge="1" parent="1" source="Z20L5RZ5sT3_ed3F6WeH-8" target="Z20L5RZ5sT3_ed3F6WeH-20">
          <mxGeometry width="50" height="50" relative="1" as="geometry">
            <mxPoint x="480" y="321.25" as="sourcePoint" />
            <mxPoint x="530" y="271.25" as="targetPoint" />
          </mxGeometry>
        </mxCell>
        <mxCell id="Z20L5RZ5sT3_ed3F6WeH-53" value="" style="endArrow=none;html=1;rounded=0;entryX=0;entryY=0.5;entryDx=0;entryDy=0;exitX=1;exitY=0.25;exitDx=0;exitDy=0;" edge="1" parent="1" source="Z20L5RZ5sT3_ed3F6WeH-8" target="Z20L5RZ5sT3_ed3F6WeH-21">
          <mxGeometry width="50" height="50" relative="1" as="geometry">
            <mxPoint x="480" y="321.25" as="sourcePoint" />
            <mxPoint x="530" y="271.25" as="targetPoint" />
          </mxGeometry>
        </mxCell>
        <mxCell id="Z20L5RZ5sT3_ed3F6WeH-54" value="" style="endArrow=none;html=1;rounded=0;entryX=0;entryY=0.5;entryDx=0;entryDy=0;exitX=1;exitY=0.75;exitDx=0;exitDy=0;" edge="1" parent="1" source="Z20L5RZ5sT3_ed3F6WeH-9" target="Z20L5RZ5sT3_ed3F6WeH-25">
          <mxGeometry width="50" height="50" relative="1" as="geometry">
            <mxPoint x="480" y="321.25" as="sourcePoint" />
            <mxPoint x="530" y="271.25" as="targetPoint" />
          </mxGeometry>
        </mxCell>
        <mxCell id="Z20L5RZ5sT3_ed3F6WeH-55" value="" style="endArrow=none;html=1;rounded=0;entryX=0;entryY=0.5;entryDx=0;entryDy=0;exitX=1;exitY=0.25;exitDx=0;exitDy=0;" edge="1" parent="1" source="Z20L5RZ5sT3_ed3F6WeH-9" target="Z20L5RZ5sT3_ed3F6WeH-26">
          <mxGeometry width="50" height="50" relative="1" as="geometry">
            <mxPoint x="480" y="321.25" as="sourcePoint" />
            <mxPoint x="530" y="271.25" as="targetPoint" />
          </mxGeometry>
        </mxCell>
        <mxCell id="Z20L5RZ5sT3_ed3F6WeH-57" value="" style="endArrow=none;html=1;rounded=0;entryX=1;entryY=0.5;entryDx=0;entryDy=0;exitX=0;exitY=0.5;exitDx=0;exitDy=0;" edge="1" parent="1" source="Z20L5RZ5sT3_ed3F6WeH-10" target="Z20L5RZ5sT3_ed3F6WeH-1">
          <mxGeometry width="50" height="50" relative="1" as="geometry">
            <mxPoint x="300" y="321.25" as="sourcePoint" />
            <mxPoint x="350" y="271.25" as="targetPoint" />
          </mxGeometry>
        </mxCell>
        <mxCell id="Z20L5RZ5sT3_ed3F6WeH-58" value="" style="endArrow=none;html=1;rounded=0;entryX=0.5;entryY=1;entryDx=0;entryDy=0;exitX=0.5;exitY=0;exitDx=0;exitDy=0;" edge="1" parent="1" source="Z20L5RZ5sT3_ed3F6WeH-6" target="Z20L5RZ5sT3_ed3F6WeH-1">
          <mxGeometry width="50" height="50" relative="1" as="geometry">
            <mxPoint x="360" y="246.25" as="sourcePoint" />
            <mxPoint x="410" y="196.25" as="targetPoint" />
          </mxGeometry>
        </mxCell>
        <mxCell id="Z20L5RZ5sT3_ed3F6WeH-59" value="" style="endArrow=none;html=1;rounded=0;exitX=1;exitY=0.5;exitDx=0;exitDy=0;entryX=0;entryY=1;entryDx=0;entryDy=0;" edge="1" parent="1" source="Z20L5RZ5sT3_ed3F6WeH-2" target="Z20L5RZ5sT3_ed3F6WeH-1">
          <mxGeometry width="50" height="50" relative="1" as="geometry">
            <mxPoint x="360" y="246.25" as="sourcePoint" />
            <mxPoint x="410" y="196.25" as="targetPoint" />
          </mxGeometry>
        </mxCell>
        <mxCell id="Z20L5RZ5sT3_ed3F6WeH-60" value="" style="endArrow=none;html=1;rounded=0;entryX=1;entryY=0.5;entryDx=0;entryDy=0;exitX=0;exitY=0.5;exitDx=0;exitDy=0;" edge="1" parent="1" source="Z20L5RZ5sT3_ed3F6WeH-1" target="Z20L5RZ5sT3_ed3F6WeH-3">
          <mxGeometry width="50" height="50" relative="1" as="geometry">
            <mxPoint x="360" y="246.25" as="sourcePoint" />
            <mxPoint x="410" y="196.25" as="targetPoint" />
          </mxGeometry>
        </mxCell>
        <mxCell id="Z20L5RZ5sT3_ed3F6WeH-61" value="" style="endArrow=none;html=1;rounded=0;entryX=1;entryY=0.5;entryDx=0;entryDy=0;exitX=0;exitY=0;exitDx=0;exitDy=0;" edge="1" parent="1" source="Z20L5RZ5sT3_ed3F6WeH-1" target="Z20L5RZ5sT3_ed3F6WeH-4">
          <mxGeometry width="50" height="50" relative="1" as="geometry">
            <mxPoint x="360" y="246.25" as="sourcePoint" />
            <mxPoint x="410" y="196.25" as="targetPoint" />
          </mxGeometry>
        </mxCell>
        <mxCell id="Z20L5RZ5sT3_ed3F6WeH-62" value="" style="endArrow=none;html=1;rounded=0;entryX=0.5;entryY=1;entryDx=0;entryDy=0;exitX=0.5;exitY=0;exitDx=0;exitDy=0;" edge="1" parent="1" source="Z20L5RZ5sT3_ed3F6WeH-1" target="Z20L5RZ5sT3_ed3F6WeH-5">
          <mxGeometry width="50" height="50" relative="1" as="geometry">
            <mxPoint x="360" y="246.25" as="sourcePoint" />
            <mxPoint x="410" y="196.25" as="targetPoint" />
          </mxGeometry>
        </mxCell>
        <mxCell id="Z20L5RZ5sT3_ed3F6WeH-63" value="num_membresia_fk" style="ellipse;whiteSpace=wrap;html=1;" vertex="1" parent="1">
          <mxGeometry x="397.5" y="240" width="120" height="30" as="geometry" />
        </mxCell>
        <mxCell id="Z20L5RZ5sT3_ed3F6WeH-64" value="cantidad" style="ellipse;whiteSpace=wrap;html=1;" vertex="1" parent="1">
          <mxGeometry x="397.5" y="206.25" width="60" height="20" as="geometry" />
        </mxCell>
        <mxCell id="Z20L5RZ5sT3_ed3F6WeH-65" value="fecha_dev" style="ellipse;whiteSpace=wrap;html=1;" vertex="1" parent="1">
          <mxGeometry x="397.5" y="278" width="75" height="29.25" as="geometry" />
        </mxCell>
        <mxCell id="Z20L5RZ5sT3_ed3F6WeH-66" value="fecha_alquiler" style="ellipse;whiteSpace=wrap;html=1;" vertex="1" parent="1">
          <mxGeometry x="390" y="322.5" width="90" height="30" as="geometry" />
        </mxCell>
        <mxCell id="Z20L5RZ5sT3_ed3F6WeH-67" value="cod_cassette_fk" style="ellipse;whiteSpace=wrap;html=1;" vertex="1" parent="1">
          <mxGeometry x="280" y="322.5" width="100" height="26.25" as="geometry" />
        </mxCell>
        <mxCell id="Z20L5RZ5sT3_ed3F6WeH-68" value="cod_alquiler" style="ellipse;whiteSpace=wrap;html=1;fontStyle=4;fillColor=#60a917;fontColor=#ffffff;strokeColor=#2D7600;" vertex="1" parent="1">
          <mxGeometry x="190" y="321.25" width="80" height="28.75" as="geometry" />
        </mxCell>
        <mxCell id="Z20L5RZ5sT3_ed3F6WeH-70" value="" style="endArrow=none;html=1;rounded=0;entryX=0;entryY=0.5;entryDx=0;entryDy=0;exitX=1;exitY=0;exitDx=0;exitDy=0;" edge="1" parent="1" source="Z20L5RZ5sT3_ed3F6WeH-10" target="Z20L5RZ5sT3_ed3F6WeH-64">
          <mxGeometry width="50" height="50" relative="1" as="geometry">
            <mxPoint x="410" y="380" as="sourcePoint" />
            <mxPoint x="460" y="330" as="targetPoint" />
          </mxGeometry>
        </mxCell>
        <mxCell id="Z20L5RZ5sT3_ed3F6WeH-71" value="" style="endArrow=none;html=1;rounded=0;entryX=1;entryY=0.5;entryDx=0;entryDy=0;exitX=0;exitY=0.5;exitDx=0;exitDy=0;" edge="1" parent="1" source="Z20L5RZ5sT3_ed3F6WeH-63" target="Z20L5RZ5sT3_ed3F6WeH-10">
          <mxGeometry width="50" height="50" relative="1" as="geometry">
            <mxPoint x="410" y="380" as="sourcePoint" />
            <mxPoint x="460" y="330" as="targetPoint" />
          </mxGeometry>
        </mxCell>
        <mxCell id="Z20L5RZ5sT3_ed3F6WeH-72" value="" style="endArrow=none;html=1;rounded=0;entryX=1;entryY=1;entryDx=0;entryDy=0;exitX=0;exitY=0.5;exitDx=0;exitDy=0;" edge="1" parent="1" source="Z20L5RZ5sT3_ed3F6WeH-65" target="Z20L5RZ5sT3_ed3F6WeH-10">
          <mxGeometry width="50" height="50" relative="1" as="geometry">
            <mxPoint x="410" y="380" as="sourcePoint" />
            <mxPoint x="460" y="330" as="targetPoint" />
          </mxGeometry>
        </mxCell>
        <mxCell id="Z20L5RZ5sT3_ed3F6WeH-73" value="" style="endArrow=none;html=1;rounded=0;entryX=0.65;entryY=0.903;entryDx=0;entryDy=0;entryPerimeter=0;exitX=0.5;exitY=0;exitDx=0;exitDy=0;" edge="1" parent="1" source="Z20L5RZ5sT3_ed3F6WeH-66" target="Z20L5RZ5sT3_ed3F6WeH-10">
          <mxGeometry width="50" height="50" relative="1" as="geometry">
            <mxPoint x="410" y="380" as="sourcePoint" />
            <mxPoint x="460" y="330" as="targetPoint" />
          </mxGeometry>
        </mxCell>
        <mxCell id="Z20L5RZ5sT3_ed3F6WeH-74" value="" style="endArrow=none;html=1;rounded=0;entryX=0.5;entryY=1;entryDx=0;entryDy=0;exitX=0.5;exitY=0;exitDx=0;exitDy=0;" edge="1" parent="1" source="Z20L5RZ5sT3_ed3F6WeH-67" target="Z20L5RZ5sT3_ed3F6WeH-10">
          <mxGeometry width="50" height="50" relative="1" as="geometry">
            <mxPoint x="410" y="380" as="sourcePoint" />
            <mxPoint x="460" y="330" as="targetPoint" />
          </mxGeometry>
        </mxCell>
        <mxCell id="Z20L5RZ5sT3_ed3F6WeH-75" value="" style="endArrow=none;html=1;rounded=0;exitX=0.5;exitY=0;exitDx=0;exitDy=0;entryX=0;entryY=1;entryDx=0;entryDy=0;" edge="1" parent="1" source="Z20L5RZ5sT3_ed3F6WeH-68" target="Z20L5RZ5sT3_ed3F6WeH-10">
          <mxGeometry width="50" height="50" relative="1" as="geometry">
            <mxPoint x="410" y="380" as="sourcePoint" />
            <mxPoint x="460" y="330" as="targetPoint" />
          </mxGeometry>
        </mxCell>
      </root>
    </mxGraphModel>
  </diagram>
</mxfile>
